# Synthetic occupied-cell centers, frame training_odom, meters.
VERSION .7
FIELDS x y z
SIZE 4 4 4
TYPE F F F
COUNT 1 1 1
WIDTH 75
HEIGHT 1
VIEWPOINT 0 0 0 1 0 0 0
POINTS 75
DATA ascii
-0.875 2.875 0.000
-0.625 2.875 0.000
-0.375 2.875 0.000
-0.125 2.875 0.000
0.125 2.875 0.000
0.375 2.875 0.000
0.625 2.875 0.000
0.875 2.875 0.000
1.125 2.875 0.000
1.375 2.875 0.000
1.625 2.875 0.000
1.875 2.875 0.000
2.125 2.875 0.000
2.375 2.875 0.000
2.625 2.875 0.000
2.875 2.875 0.000
3.125 2.875 0.000
3.375 2.875 0.000
3.625 2.875 0.000
3.875 2.875 0.000
-0.875 2.625 0.000
3.875 2.625 0.000
-0.875 2.375 0.000
3.875 2.375 0.000
-0.875 2.125 0.000
3.875 2.125 0.000
-0.875 1.875 0.000
2.625 1.875 0.000
3.875 1.875 0.000
-0.875 1.625 0.000
2.625 1.625 0.000
3.875 1.625 0.000
-0.875 1.375 0.000
2.625 1.375 0.000
3.875 1.375 0.000
-0.875 1.125 0.000
2.625 1.125 0.000
3.875 1.125 0.000
-0.875 0.875 0.000
2.625 0.875 0.000
3.875 0.875 0.000
-0.875 0.625 0.000
2.625 0.625 0.000
3.875 0.625 0.000
-0.875 0.375 0.000
2.625 0.375 0.000
3.875 0.375 0.000
-0.875 0.125 0.000
3.875 0.125 0.000
-0.875 -0.125 0.000
3.875 -0.125 0.000
-0.875 -0.375 0.000
3.875 -0.375 0.000
-0.875 -0.625 0.000
3.875 -0.625 0.000
-0.875 -0.875 0.000
-0.625 -0.875 0.000
-0.375 -0.875 0.000
-0.125 -0.875 0.000
0.125 -0.875 0.000
0.375 -0.875 0.000
0.625 -0.875 0.000
0.875 -0.875 0.000
1.125 -0.875 0.000
1.375 -0.875 0.000
1.625 -0.875 0.000
1.875 -0.875 0.000
2.125 -0.875 0.000
2.375 -0.875 0.000
2.625 -0.875 0.000
2.875 -0.875 0.000
3.125 -0.875 0.000
3.375 -0.875 0.000
3.625 -0.875 0.000
3.875 -0.875 0.000
